<svg xmlns="http://www.w3.org/2000/svg" style="width:100%;height:100%" viewBox="0 0 1920 1080"><defs><clipPath id="a"><path d="M0 0h1920v1080H0z"/></clipPath></defs><g display="block" clip-path="url(#a)"><path fill="#DAFF34" d="M106.545 1025.018c-2.287 0-7.064-5.041-7.064-7.328l.75-158.285c0-46.005 177.43-585.087 177.43-617.531 0 0 2.161-12.35 1.125-19.237-1.036-6.887-11.458-10.828-16.034-10.828l-152.236-.21c-3.219 0-10.61-7.838-10.61-11.058l-.261-119.055c0-3.218 5.27-9.266 8.49-9.266l70.735-.061 237.359-.188c3.216 0 9.41 7.318 9.41 10.536l-.164 185.902c0 50.847-179.85 600.387-179.85 631.865l-.07 117.107c0 2.287-4.49 7.784-6.776 7.784l-132.234-.147zM782.097 212.824c-.12-78.55-63.833-142.164-142.382-142.164H464.903a8.524 8.524 0 0 0-8.525 8.524v936.889a8.526 8.526 0 0 0 8.525 8.526h175.596c78.72 0 142.502-63.882 142.382-142.6l-.784-669.175zm-138.56 683.048c-.93 11.644-10.247 21.236-21.86 22.475-6.096.65-11.798-.93-16.401-4.019h-1.479v-1.093c-5.753-4.51-9.459-11.506-9.459-19.384 0-3.374.681-6.586 1.911-9.512 4.62-10.98 7.548-22.597 7.548-34.508l1.244-586.77c0-11.91-2.932-23.526-7.55-34.508a24.483 24.483 0 0 1-1.91-9.514c0-7.876 3.707-14.874 9.46-19.381v-.433h.576c5.04-3.72 11.524-5.601 18.484-4.528 10.535 1.626 18.99 10.164 20.5 20.715.687 4.806-.014 9.386-1.765 13.41-4.712 10.831-7.434 22.418-7.434 34.23l-1.244 586.788c0 11.784 2.67 23.365 7.404 34.16 1.575 3.59 2.315 7.626 1.975 11.872zM976.74 56.337c-90.167 0-163.26 73.093-163.26 163.258V877.34c0 90.167 73.093 163.259 163.26 163.259 90.166 0 163.26-73.092 163.26-163.26V219.596c0-90.165-73.094-163.258-163.26-163.258zm27.53 837.385c0 15.633-13.03 28.221-28.823 27.5-14.359-.656-26.023-12.731-26.233-27.103a27.325 27.325 0 0 1 2.32-11.465c5.282-11.962 8.148-24.841 8.148-37.915V269.581c0-13.07-2.864-25.953-8.144-37.91a27.379 27.379 0 0 1-2.324-11.471c.203-14.375 11.876-26.446 26.234-27.101 15.793-.722 28.822 11.867 28.822 27.5 0 3.751-.754 7.326-2.118 10.584-5.116 12.225-8.354 25.154-8.354 38.407v575.14c0 13.257 3.235 26.186 8.354 38.41a27.323 27.323 0 0 1 2.118 10.582zM1337.9 337.898h152.594a8.504 8.504 0 0 0 8.505-8.504V207.097a8.504 8.504 0 0 0-8.505-8.504H1337.9c-10.427 0-18.88-8.452-18.88-18.882V80.66c0-4.694-3.808-8.5-8.504-8.5H1181.59a8.503 8.503 0 0 0-8.504 8.5v796.04c0 89.997 72.96 162.954 162.957 162.954s162.955-72.957 162.955-162.955V379.38a8.503 8.503 0 0 0-8.488-8.503l-128.925-.232a8.5 8.5 0 0 0-8.519 8.5V844.16c0 13.052 2.87 25.91 8.136 37.85a27.3 27.3 0 0 1 2.315 11.436c-.201 14.345-11.849 26.4-26.18 27.057-15.762.721-28.774-11.844-28.774-27.45 0-3.746.752-7.313 2.113-10.565 5.105-12.202 8.342-25.105 8.342-38.333V356.78c0-10.428 8.453-18.881 18.88-18.881zM1721.7 445.36h129.275a8.528 8.528 0 0 0 8.526-8.528V219.236c0-90.24-73.159-163.397-163.4-163.397-90.244 0-163.399 73.156-163.399 163.397V496.22c0 104.758 180.47 92.786 180.47 157.635v191.06c0 13.085 2.88 25.974 8.156 37.946a27.439 27.439 0 0 1 2.322 11.477c-.204 14.386-11.882 26.466-26.254 27.125-15.806.725-28.848-11.878-28.848-27.524 0-3.756.754-7.333 2.117-10.59 5.123-12.24 8.364-25.177 8.364-38.442V674.331a8.526 8.526 0 0 0-8.528-8.526h-129.274a8.525 8.525 0 0 0-8.525 8.526v203.21c0 90.245 73.155 163.4 163.4 163.4 90.24 0 163.399-73.155 163.399-163.4V613.947c0-94.782-180.472-90.792-180.472-157.639V269.267c0-13.087-2.876-25.982-8.157-37.956a27.373 27.373 0 0 1-2.32-11.461c.2-14.387 11.876-26.472 26.248-27.133 15.809-.727 28.854 11.874 28.854 27.523 0 3.755-.752 7.335-2.118 10.595-5.122 12.235-8.364 25.172-8.364 38.437v167.56a8.527 8.527 0 0 0 8.528 8.528z" visibility="inherit"/></g></svg>
