<svg version="1.1" id="Layer_1" xmlns="http://www.w3.org/2000/svg" x="0" y="0" viewBox="0 0 1920 892.7" xml:space="preserve"><path d="M23.7 861.2c-5.1 0-9.1-4.1-9.1-9.2V695.5c0-101.7 193.7-385.6 193.7-457.4v-42.4c0-10.1-8.2-18.3-18.3-18.3H27.5c-7.1 0-12.9-5.8-12.9-12.9V39c0-7.1 5.8-12.9 12.9-12.9h325c7.1 0 12.9 5.8 12.9 12.9v237.2c0 112.5-193.7 387.8-193.7 457.4V852c0 5.1-4.1 9.2-9.1 9.2H23.7zM554.8 743.3h1.8c-.6-.4-1.2-.9-1.8-1.3v1.3zM554.8 163.5v.5c.2-.2.5-.4.7-.5h-.7z" fill="#060035"/><path d="M747.5 178.7C747.4 94.4 679 26.1 594.6 26.1H406.9c-5.1 0-9.1 4.1-9.1 9.2V852c0 5.1 4.1 9.2 9.1 9.2h188.5c84.5 0 153-68.6 152.9-153.1l-.8-529.4zM602.8 721.1c-1.1 14.1-12.4 25.6-26.4 27.1-7.4.8-14.2-1.1-19.8-4.8h-1.8V742c-6.9-5.5-11.4-13.9-11.4-23.4 0-4.1.8-8 2.3-11.5 5.6-13.2 9.1-27.3 9.1-41.7V240.6c0-14.4-3.5-28.4-9.1-41.7-1.5-3.5-2.3-7.4-2.3-11.5 0-9.5 4.5-17.9 11.4-23.4v-.5h.7c6.1-4.5 13.9-6.8 22.3-5.5 12.7 2 22.9 12.3 24.8 25 .8 5.8 0 11.3-2.1 16.2-5.7 13.1-9 27.1-9 41.3v424.9c0 14.2 3.2 28.2 8.9 41.2 1.9 4.5 2.8 9.4 2.4 14.5zM957.6 10c-96.9 0-175.4 78.5-175.4 175.4v517.5c0 96.9 78.5 175.4 175.4 175.4S1133 799.8 1133 702.9V185.4C1133 88.5 1054.5 10 957.6 10zm29.8 708.6c0 16.8-14 30.4-30.9 29.7-15.6-.6-28.4-13.8-28.6-29.4 0-4.3.8-8.5 2.5-12.2 5.7-13 8.9-27 8.9-41.2V240.6c0-14.2-3.2-28.2-8.9-41.2-1.6-3.7-2.5-7.9-2.5-12.2.1-15.6 12.9-28.8 28.5-29.4 17-.7 30.9 12.9 30.9 29.7 0 4.1-.8 7.9-2.3 11.5-5.6 13.2-9.1 27.3-9.1 41.7v424.9c0 14.4 3.5 28.4 9.1 41.7 1.5 3.4 2.4 7.2 2.4 11.3zM1508.6 351.3l-138.8-.3c-5.1 0-9.2 4.2-9.2 9.3v301.2c0 14.5 3.2 28.7 8.9 42 1.6 3.8 2.5 8 2.5 12.4 0 3.5-.7 6.9-1.8 10.1-4.1 11.2-14.5 19.4-26.7 19.9-6.9.3-13.3-1.9-18.5-5.6-7.5-5.5-12.4-14.5-12.4-24.6 0-4.1.8-8.1 2.3-11.7 5.6-13.5 9.1-27.8 9.1-42.4V226.8c0-54.3-4.2-73.4 19.5-73.4 21.3 0 17.1 17.9 17.1 73.4v79c0 5.1 4.1 9.3 9.1 9.3h138.8c5.1 0 9.1-4.2 9.1-9.3V187.9s-.5-19.6-1.3-21c-10.5-88.4-84.4-156.9-174-156.9-7.6 0-15.2.5-22.6 1.5-86.2 11.3-152.8 86.3-152.8 177.2v510.9c0 90.9 66.6 166 152.8 177.2 7.4 1 14.9 1.5 22.6 1.5 89.6 0 163.5-68.5 174.1-156.9.8-1.4 1.3-3 1.3-4.8v-356c0-5.2-4.1-9.3-9.1-9.3zM1757.5 326h138.8c5.1 0 9.2-4.1 9.2-9.1V185.4c0-96.9-78.5-175.4-175.4-175.4s-175.4 78.5-175.4 175.4v195.2c0 112.5 193.7 99.6 193.7 169.2v115.7c0 14.2 3.2 28.2 8.9 41.2 1.6 3.7 2.5 7.9 2.5 12.2-.2 15.7-12.9 28.8-28.6 29.4-17 .7-30.9-12.9-30.9-29.7 0-4.1.8-8 2.3-11.5 5.6-13.2 9.1-27.3 9.1-41.7v-93.7c0-5-4.1-9.2-9.2-9.2h-138.8c-5.1 0-9.2 4.1-9.2 9.2v131.1c0 96.9 78.5 175.4 175.4 175.4s175.4-78.5 175.4-175.4v-196c0-101.7-193.7-97.5-193.7-169.2v-97.1c0-14.2-3.2-28.2-8.9-41.2-1.6-3.7-2.5-7.8-2.5-12.2.1-15.6 12.9-28.8 28.6-29.4 17-.7 30.9 12.9 30.9 29.7 0 4.1-.8 7.9-2.3 11.5-5.6 13.2-9.1 27.3-9.1 41.6v76.2c0 5.2 4.1 9.3 9.2 9.3z" fill="#060035"/></svg>
